<svg xmlns="http://www.w3.org/2000/svg" width="32" height="32" viewBox="0 0 32 32">
  <defs>
    <linearGradient id="skyGradient" x1="0%" y1="0%" x2="0%" y2="100%">
      <stop offset="0%" style="stop-color:#87CEEB;stop-opacity:1" />
      <stop offset="100%" style="stop-color:#4682B4;stop-opacity:1" />
    </linearGradient>
  </defs>
  
  <!-- Background -->
  <rect width="32" height="32" rx="6" fill="url(#skyGradient)"/>
  
  <!-- Sun -->
  <circle cx="10" cy="8" r="3" fill="#FFD700"/>
  <path d="M10 3 L10 5 M10 11 L10 13 M5 8 L7 8 M13 8 L15 8 M6.5 5.5 L7.9 6.9 M12.1 9.1 L13.5 10.5 M6.5 10.5 L7.9 9.1 M12.1 6.9 L13.5 5.5" 
        stroke="#FFD700" stroke-width="0.8" stroke-linecap="round"/>
  
  <!-- Cloud -->
  <path d="M18 12 C16 12 16 10 18 10 C19 8 22 8 23 10 C25 10 25 12 23 12 Z" fill="white" opacity="0.9"/>
  
  <!-- News paper -->
  <rect x="6" y="18" width="20" height="12" rx="1" fill="white" stroke="#ddd" stroke-width="0.5"/>
  
  <!-- News lines -->
  <rect x="8" y="20" width="8" height="1" fill="#333"/>
  <rect x="8" y="22" width="12" height="0.5" fill="#666"/>
  <rect x="8" y="24" width="10" height="0.5" fill="#666"/>
  <rect x="8" y="26" width="14" height="0.5" fill="#666"/>
  
  <!-- News icon/image placeholder -->
  <rect x="19" y="20" width="5" height="4" fill="#e0e0e0" stroke="#ccc" stroke-width="0.3"/>
  <circle cx="21.5" cy="21.5" r="0.8" fill="#999"/>
  <path d="M20.5 23 L22.5 22 L23.5 23" stroke="#999" stroke-width="0.4" fill="none"/>
</svg>